<svg version="1.1" id="Layer_1" xmlns="http://www.w3.org/2000/svg" xmlns:xlink="http://www.w3.org/1999/xlink" x="0px" y="0px"
	 width="100%" viewBox="0 0 512 512" enable-background="new 0 0 512 512" xml:space="preserve">
<path fill="#000100" opacity="1.000000" stroke="none" 
	d="
M336.000000,513.000000 
	C224.027206,513.000000 112.554405,513.000000 1.040803,513.000000 
	C1.040803,342.402191 1.040803,171.804352 1.040803,1.103257 
	C171.556137,1.103257 342.112366,1.103257 512.834290,1.103257 
	C512.834290,171.666534 512.834290,342.333252 512.834290,513.000000 
	C454.137665,513.000000 395.318817,513.000000 336.000000,513.000000 
M182.487289,394.291809 
	C182.487289,390.908783 182.487289,387.525787 182.487289,384.475372 
	C177.140564,383.730316 172.618271,383.100159 167.754608,382.422455 
	C167.754608,392.889069 167.754608,403.352600 167.754608,413.953644 
	C169.726547,413.953644 171.358826,413.953644 173.910889,414.086914 
	C176.656036,414.086914 179.401199,414.086914 182.233459,414.086914 
	C182.233459,407.263885 182.233459,401.159729 182.487289,394.291809 
M346.515686,395.142578 
	C346.515686,390.889832 346.515686,386.637115 346.515686,382.341583 
	C341.203339,383.124268 336.534088,383.812195 331.754028,384.516449 
	C331.754028,394.304596 331.754028,404.036835 331.754028,413.951569 
	C334.061798,413.951569 336.026428,413.951569 338.905060,414.086212 
	C341.327209,414.086212 343.749359,414.086212 346.269348,414.086212 
	C346.269348,407.528351 346.269348,401.717773 346.515686,395.142578 
M255.931793,414.087646 
	C261.247070,414.087646 266.562347,414.087646 271.856323,414.087646 
	C271.856323,410.214355 271.856323,407.114471 271.991180,403.117126 
	C271.991180,400.728180 271.991180,398.339233 271.991180,396.535614 
	C261.615479,396.535614 252.053741,396.535614 242.316589,396.535614 
	C242.316589,401.999146 242.316589,407.885895 242.316589,413.936035 
	C246.758179,413.936035 250.882645,413.936035 255.931793,414.087646 
M409.914734,414.089600 
	C414.339783,414.089600 418.764862,414.089600 423.216309,414.089600 
	C423.216309,409.647797 423.216309,405.852142 423.473480,401.320312 
	C423.473480,398.708588 423.473480,396.096832 423.473480,393.733032 
	C414.942139,393.733032 406.919800,393.733032 398.789398,393.733032 
	C398.789398,400.377960 398.789398,407.069733 398.789398,413.947754 
	C402.421814,413.947754 405.705078,413.947754 409.914734,414.089600 
M101.914444,414.089569 
	C106.339561,414.089569 110.764679,414.089569 115.216331,414.089569 
	C115.216331,409.647858 115.216331,405.852142 115.473518,401.320312 
	C115.473518,398.708588 115.473518,396.096863 115.473518,393.733032 
	C106.941940,393.733032 98.919838,393.733032 90.789268,393.733032 
	C90.789268,400.377777 90.789268,407.069550 90.789268,413.947723 
	C94.421539,413.947723 97.704742,413.947723 101.914444,414.089569 
M103.467896,123.726059 
	C97.355263,124.144470 95.971199,129.795044 93.108376,133.528030 
	C86.470123,142.183990 86.077301,142.519562 76.345001,138.119293 
	C73.229393,144.013519 70.105209,149.923965 66.982521,155.831589 
	C74.962196,160.051056 75.821350,162.426743 72.709908,170.372498 
	C71.437256,173.622498 70.156631,176.875580 69.070251,180.189758 
	C68.500793,181.927002 68.343468,183.799332 67.844398,186.431381 
	C71.233421,185.768372 73.628563,185.299805 76.884537,184.940262 
	C83.723183,184.605698 89.532806,186.928146 94.705536,191.384674 
	C101.893959,197.577820 104.134415,197.567001 111.398605,191.311951 
	C117.937920,185.681076 125.251877,183.728317 133.670837,185.671219 
	C134.983292,185.974106 136.425766,185.713577 138.067993,185.713577 
	C137.911133,184.216797 137.978455,183.194992 137.683746,182.291245 
	C131.012421,161.834106 121.009781,143.154449 107.569191,126.347183 
	C106.724007,125.290291 105.208878,124.769142 103.467896,123.726059 
M411.470947,123.712578 
	C409.586029,124.823288 407.177094,125.513901 405.897583,127.109962 
	C393.641541,142.397934 384.290955,159.342361 377.878052,177.865326 
	C377.047699,180.263779 376.875397,182.890091 376.398285,185.410828 
	C378.940887,185.218842 381.483490,185.026855 384.886902,184.941406 
	C391.725403,184.604523 397.534088,186.926804 402.704803,191.385468 
	C409.882751,197.574936 412.134460,197.564926 419.396149,191.312653 
	C425.935089,185.682724 433.247986,183.729980 441.665924,185.669678 
	C442.978607,185.972122 444.420868,185.711960 446.065063,185.711960 
	C445.907745,184.214035 445.975159,183.191940 445.679871,182.288361 
	C438.997406,161.839661 429.023376,143.147293 415.566681,126.351471 
	C414.718933,125.293335 413.208527,124.766121 411.470947,123.712578 
M368.931824,238.054169 
	C378.975494,237.007126 388.445770,238.397400 397.070129,244.138214 
	C406.357300,250.320206 415.787842,250.167923 425.093536,244.081009 
	C435.362762,237.363876 446.409027,236.376328 458.102631,239.208420 
	C459.675018,239.589249 462.351227,239.597321 462.977356,238.701874 
	C463.875580,237.417374 464.095337,234.728470 463.324860,233.359634 
	C458.693604,225.132202 453.696381,217.110794 448.591949,208.398773 
	C441.628296,199.058502 435.597015,197.495941 428.590973,203.216934 
	C416.030029,213.473969 405.926300,213.473022 393.433258,203.213654 
	C387.373871,198.237640 380.400818,198.776855 375.888947,205.256882 
	C370.401855,213.137497 365.261810,221.288376 360.480682,229.614670 
	C359.020721,232.157150 359.239410,235.663559 358.689331,238.728500 
	C361.792389,238.485275 364.895416,238.242035 368.931824,238.054169 
M140.591904,208.398758 
	C133.628265,199.058365 127.597023,197.495850 120.590813,203.217072 
	C108.029984,213.474167 97.926453,213.473083 85.432930,203.213333 
	C79.373184,198.237045 72.398422,198.777832 67.888397,205.257401 
	C62.402489,213.139023 57.261341,221.289200 52.480240,229.615585 
	C51.020428,232.157867 51.239788,235.664337 50.690147,238.729248 
	C53.792950,238.484833 56.895752,238.240433 60.931778,238.053513 
	C70.975410,237.007050 80.446533,238.397446 89.070694,244.136917 
	C98.358574,250.318085 107.787788,250.168274 117.093788,244.080933 
	C127.362854,237.363617 138.409225,236.376343 150.102753,239.208466 
	C151.675125,239.589310 154.351364,239.597229 154.977417,238.701797 
	C155.875565,237.417191 156.095306,234.728378 155.324783,233.359497 
	C150.693542,225.132111 145.696320,217.110748 140.591904,208.398758 
M262.613922,103.367638 
	C257.932892,98.836403 255.034409,98.933899 251.102478,103.778610 
	C250.158371,104.941887 249.258133,106.141342 248.354980,107.337181 
	C235.301392,124.621346 225.330948,143.525665 218.596344,164.118103 
	C216.818237,169.555008 218.065536,170.892746 223.624237,169.758423 
	C225.413635,169.393265 227.223465,169.128143 229.864685,168.936737 
	C236.897385,168.847183 242.669144,171.694061 247.879288,176.252670 
	C255.291321,182.737869 258.729187,182.799988 266.007416,176.335083 
	C273.277374,169.877472 281.379272,167.533615 290.896210,169.829971 
	C295.760986,171.003784 297.163452,169.406799 295.570312,164.609039 
	C288.226471,142.493347 277.653320,122.106018 262.613922,103.367638 
M148.342728,138.395264 
	C147.059372,141.285629 145.909409,144.244888 144.460739,147.049881 
	C142.397964,151.043915 142.573669,154.598572 144.571671,158.792908 
	C147.638626,165.231262 150.377991,171.967545 152.062408,178.868805 
	C153.054916,182.935257 152.496384,187.801834 151.216675,191.861298 
	C150.277283,194.841187 150.543396,196.503632 152.094009,198.978149 
	C158.006805,208.413940 163.758087,217.960052 169.254333,227.643936 
	C172.015427,232.508728 172.263931,237.990570 169.923676,243.081177 
	C168.362808,246.476456 165.817307,249.419083 163.529755,252.837311 
	C166.991531,257.959839 170.643021,263.363068 174.391403,268.909729 
	C180.438507,259.502777 186.164429,250.595474 191.575928,242.177277 
	C189.033051,238.793762 186.266159,236.008774 184.584137,232.676208 
	C181.627945,226.819168 181.963989,220.573807 185.137390,214.888138 
	C191.856461,202.849792 198.887970,190.985855 206.106277,178.505905 
	C200.944809,171.927643 202.273987,164.125275 205.339767,156.128616 
	C206.125687,154.078659 206.898956,151.432587 206.257034,149.543182 
	C204.666733,144.862366 202.254990,140.460632 200.030197,135.235214 
	C193.260513,124.424889 186.649841,113.509903 179.638687,102.858528 
	C177.031464,98.897659 173.343384,98.550255 171.054398,102.079559 
	C163.407013,113.870750 156.226410,125.964676 148.342728,138.395264 
M313.294617,136.374130 
	C308.792175,144.710342 305.513947,152.791824 310.328766,162.644623 
	C312.026154,166.118027 310.546387,171.836563 309.012787,175.972137 
	C307.834656,179.149170 308.243896,180.782959 309.892944,183.400589 
	C316.447357,193.804886 323.067078,204.209534 328.839478,215.052261 
	C333.749329,224.274750 331.593079,232.900345 323.933502,239.850113 
	C323.226532,240.491547 322.070099,240.637604 321.537689,240.848877 
	C328.059875,250.970474 333.759094,259.814911 339.659821,268.972046 
	C343.576416,263.085327 347.217834,257.612244 350.800903,252.226822 
	C341.481171,242.777359 340.099060,235.978546 346.232605,224.533203 
	C351.014587,215.609802 356.852112,207.256821 361.995453,198.517838 
	C362.906891,196.969284 363.556549,194.369049 362.878448,192.943542 
	C360.416382,187.767685 360.177094,182.668442 362.133301,177.446075 
	C364.758881,170.436600 367.658081,163.529037 370.240601,156.504486 
	C370.877808,154.771210 371.433594,152.496216 370.839844,150.916367 
	C368.919464,145.807037 366.446716,140.905289 364.062225,135.210266 
	C357.259430,124.378784 350.615662,113.442299 343.570496,102.770836 
	C340.986786,98.857246 337.317810,98.599174 334.957458,102.182312 
	C327.658661,113.262245 320.816162,124.642769 313.294617,136.374130 
M210.960541,227.177612 
	C222.033249,225.969238 232.374710,227.761810 241.836258,234.065460 
	C245.943970,236.802170 248.030869,239.934845 245.922363,245.360535 
	C242.703979,249.494308 238.968643,249.845840 234.508484,247.280579 
	C231.358002,245.468628 228.045105,243.110962 224.632355,242.781281 
	C219.766327,242.311234 212.666107,241.546371 210.137527,244.268097 
	C197.737854,257.614868 188.491302,273.317902 181.243927,290.059418 
	C178.771042,295.771820 183.253632,300.957489 189.443604,300.057861 
	C191.362335,299.778961 193.182541,298.822205 195.915894,298.170380 
	C211.395905,295.052277 225.632034,297.796570 238.762543,306.754120 
	C241.710190,308.764954 245.309692,310.117126 248.804916,310.972504 
	C259.054169,313.480743 268.624207,311.506104 277.378601,305.609711 
	C286.819244,299.251038 297.223511,296.142426 308.579468,297.114349 
	C313.509613,297.536316 318.324768,299.336823 323.253876,299.722565 
	C325.938232,299.932617 329.680023,299.318451 331.244965,297.561707 
	C332.796387,295.820160 333.442871,291.528870 332.360962,289.475830 
	C326.557312,278.462921 320.090057,267.799713 313.647095,256.381927 
	C311.995605,254.098999 310.148010,251.931320 308.726837,249.513016 
	C302.781281,239.395859 295.375305,240.986221 286.317719,243.629471 
	C284.141022,244.264679 282.190735,245.713501 280.175568,246.857315 
	C274.447845,250.108475 272.096588,249.749435 267.470062,244.072037 
	C266.171143,239.695358 268.075714,236.816055 271.636993,234.434006 
	C282.977600,226.848587 295.155884,225.112305 308.319580,228.414368 
	C310.395691,228.935181 313.829834,228.609589 314.908630,227.276932 
	C316.026642,225.895798 315.835846,222.385300 314.842743,220.550079 
	C310.511902,212.546860 305.680847,204.814346 300.824127,196.333817 
	C299.351257,194.321686 297.921722,192.276077 296.397827,190.303360 
	C290.484711,182.648758 282.988068,182.016617 275.410004,187.942566 
	C271.813385,190.755112 267.791443,193.513046 263.510406,194.862350 
	C253.682480,197.959900 245.396027,194.299973 237.969284,187.623245 
	C231.565872,181.866455 223.084076,182.655594 218.165100,189.704407 
	C212.090530,198.409134 206.459457,207.443146 201.038452,216.573364 
	C199.142914,219.765915 195.627945,223.548660 198.993256,227.463837 
	C202.348877,231.367752 206.341995,227.987808 210.960541,227.177612 
M34.900639,366.472504 
	C50.835228,361.793610 66.148903,362.671753 80.337311,371.973358 
	C95.664841,382.021790 110.793755,381.827606 126.010658,371.782990 
	C133.516525,366.828400 141.772675,364.040436 150.845276,363.868134 
	C151.763443,363.850708 152.673889,363.425690 153.587921,363.189819 
	C153.160660,362.964447 152.733398,362.739075 152.306137,362.513702 
	C154.234131,356.447021 155.877777,350.269867 158.178192,344.347870 
	C160.091705,339.421844 162.777023,334.795654 165.659149,329.635101 
	C167.575272,326.312592 169.491394,322.990051 171.409500,319.664093 
	C167.499786,319.441742 164.000031,319.946747 160.999542,318.949524 
	C148.396698,314.760834 136.965012,316.474915 126.026405,323.998077 
	C120.671524,327.680969 117.946121,326.842834 113.400620,321.092407 
	C112.419395,317.450989 113.500969,314.528259 116.550377,312.368042 
	C130.487976,302.494629 145.549286,298.727905 162.303299,303.869659 
	C163.996262,304.389191 165.882812,304.277924 166.824112,304.373016 
	C166.576401,298.284393 166.401520,292.916565 166.107971,287.555237 
	C166.038345,286.283844 165.877182,284.845337 165.236313,283.805237 
	C161.144806,277.165039 156.907410,270.614655 152.458496,263.436646 
	C151.171448,261.697449 149.663376,260.078339 148.640610,258.195587 
	C146.026215,253.382843 141.799835,251.854477 136.900726,252.914688 
	C132.606232,253.844070 128.173645,255.144821 124.407448,257.326599 
	C110.113853,265.606873 96.059181,265.828217 81.851997,257.343323 
	C79.576431,255.984299 77.216919,254.654831 74.731644,253.778412 
	C66.742531,250.961166 61.261005,252.276611 56.701775,259.257996 
	C49.345142,270.522949 42.581371,282.177094 35.655388,293.719788 
	C33.859371,296.712982 32.860897,299.945618 35.904194,302.840454 
	C38.810757,305.605255 41.932987,304.969391 45.882118,303.069794 
	C61.189884,299.579498 75.166618,302.496124 88.083649,311.414825 
	C92.027756,314.138092 93.905037,317.181396 91.997055,322.392792 
	C87.763145,326.797302 85.476509,327.167572 80.225838,324.240448 
	C78.340187,323.189270 76.471024,322.104828 74.631889,320.974457 
	C66.260132,315.828888 57.320545,315.581238 48.221424,318.271942 
	C46.209366,318.866943 43.977493,320.473175 42.919411,322.251831 
	C36.559177,332.943512 30.484110,343.805756 24.376808,354.646484 
	C22.617739,357.768951 22.350908,361.002960 24.720661,363.987885 
	C27.173243,367.077118 30.363462,367.871216 34.900639,366.472504 
M353.196442,338.686737 
	C356.961151,346.581116 361.714752,354.164978 360.097595,363.924103 
	C372.998260,363.325653 382.973053,368.749054 393.058960,374.494507 
	C397.638245,377.103119 403.285614,378.297760 408.601685,379.047791 
	C417.345764,380.281372 425.353302,377.528595 432.616028,372.575775 
	C442.778259,365.645660 454.063904,362.849091 466.234100,364.019989 
	C470.660614,364.445831 475.029572,365.629242 479.377289,366.666046 
	C483.030273,367.537140 486.351135,367.412628 488.967590,364.378479 
	C491.595673,361.330841 491.444061,357.989349 489.620178,354.629608 
	C485.342834,346.750580 481.021606,338.895386 476.489319,330.411407 
	C472.548615,323.634308 468.841431,317.188721 459.325439,316.676300 
	C449.789337,316.162720 441.822510,319.106506 434.055420,324.025879 
	C428.553497,327.510529 425.943115,326.839844 421.400146,321.092255 
	C420.254822,316.698456 422.255920,313.963470 425.796570,311.522552 
	C439.847870,301.835449 454.869537,299.104919 471.365967,304.004425 
	C473.418854,304.614136 476.862122,303.679169 478.329315,302.167389 
	C479.584686,300.873840 479.897003,297.196472 478.960754,295.484283 
	C473.149872,284.857727 466.869080,274.488068 460.498260,263.426849 
	C459.213287,261.687897 457.724091,260.062317 456.683289,258.187805 
	C454.044403,253.435043 449.868958,251.930435 444.932068,252.891220 
	C441.094574,253.638062 436.998077,254.531021 433.742065,256.536621 
	C418.419647,265.974640 403.382172,266.046814 388.211273,256.381317 
	C386.270081,255.144562 384.093781,253.851425 381.890686,253.537872 
	C376.974670,252.838272 371.274048,250.564774 367.582214,255.671326 
	C361.065155,264.685669 355.089966,274.092957 348.951019,283.377441 
	C348.337433,284.305450 347.879944,285.506531 347.824097,286.604980 
	C347.528076,292.429901 347.383636,298.262512 347.159821,304.886078 
	C348.876892,304.362518 350.954163,303.729095 353.882050,303.069885 
	C369.189728,299.579010 383.165436,302.497009 396.083832,311.413574 
	C400.031555,314.138367 401.892090,317.188049 400.005310,322.392700 
	C397.061707,326.376251 393.386780,327.091492 389.092133,324.765137 
	C387.196106,323.738037 385.297241,322.691589 383.514526,321.484314 
	C376.486450,316.724762 368.672729,315.950836 360.581818,317.109924 
	C354.700256,317.952576 348.880035,319.223236 342.894775,320.328491 
	C346.151733,325.963013 349.624725,331.971283 353.196442,338.686737 
M329.457001,327.421265 
	C325.118286,319.276550 320.239716,312.127838 309.468597,311.966797 
	C301.435547,311.846741 294.005371,312.979401 286.987610,317.201874 
	C282.029236,320.185242 276.846497,323.196564 271.357147,324.819641 
	C256.153168,329.315094 241.700928,327.012665 228.425797,318.138672 
	C218.297821,311.368500 207.412109,310.200897 195.995911,314.034698 
	C194.109650,314.668152 191.975266,316.036804 191.003494,317.683929 
	C183.822754,329.855225 176.839539,342.145203 169.949829,354.484741 
	C167.835251,358.271973 167.903992,362.232056 170.964584,365.635864 
	C174.103867,369.127167 177.984146,369.805389 182.343964,368.179749 
	C183.900284,367.599487 185.499954,367.135468 187.966110,366.537079 
	C204.221069,363.154633 219.283386,365.746887 233.327805,374.884888 
	C248.801529,384.952850 264.707092,385.151093 280.253448,375.117950 
	C296.626831,364.551025 313.882080,362.407654 332.280609,368.371338 
	C336.554260,369.756531 340.197479,368.859467 343.123596,365.508087 
	C345.979706,362.236938 346.103790,358.449036 344.177979,354.784332 
	C339.461945,345.809753 334.541931,336.942383 329.457001,327.421265 
z"/>
<path fill="#00B57B" opacity="1.000000" stroke="none" 
	d="
M329.703949,328.031860 
	C334.541931,336.942383 339.461945,345.809753 344.177979,354.784332 
	C346.103790,358.449036 345.979706,362.236938 343.123596,365.508087 
	C340.197479,368.859467 336.554260,369.756531 332.280609,368.371338 
	C313.882080,362.407654 296.626831,364.551025 280.253448,375.117950 
	C264.707092,385.151093 248.801529,384.952850 233.327805,374.884888 
	C219.283386,365.746887 204.221069,363.154633 187.476685,366.126068 
	C187.252121,360.997314 186.686996,356.032684 187.997681,351.625977 
	C189.540695,346.438202 192.491089,341.609039 195.216599,336.844788 
	C201.921997,325.123688 211.336044,322.699036 222.984070,329.489868 
	C245.897049,342.848083 268.877838,343.125183 291.450378,329.067810 
	C298.782349,324.501770 306.094086,324.468323 313.960602,325.738007 
	C319.195435,326.582947 324.455292,327.272675 329.703949,328.031860 
z"/>
<path fill="#00B57B" opacity="1.000000" stroke="none" 
	d="
M313.852020,257.015717 
	C320.090057,267.799713 326.557312,278.462921 332.360962,289.475830 
	C333.442871,291.528870 332.796387,295.820160 331.244965,297.561707 
	C329.680023,299.318451 325.938232,299.932617 323.253876,299.722565 
	C318.324768,299.336823 313.509613,297.536316 308.579468,297.114349 
	C297.223511,296.142426 286.819244,299.251038 277.378601,305.609711 
	C268.624207,311.506104 259.054169,313.480743 248.804916,310.972504 
	C245.309692,310.117126 241.710190,308.764954 238.762543,306.754120 
	C225.632034,297.796570 211.395905,295.052277 195.476578,297.714905 
	C195.434250,293.816223 194.990738,289.977966 196.388245,287.005127 
	C200.340805,278.597046 204.629700,270.280090 209.580490,262.428070 
	C214.107971,255.247467 220.076874,254.221588 227.784653,257.874115 
	C232.285507,260.006989 236.671082,262.635162 241.410202,263.967316 
	C257.438354,268.472839 272.729889,266.370270 286.852844,257.361023 
	C291.184631,254.597672 295.537659,253.702393 300.599854,254.931381 
	C304.930634,255.982819 309.428223,256.347351 313.852020,257.015717 
z"/>
<path fill="#00B57A" opacity="1.000000" stroke="none" 
	d="
M400.420441,321.893188 
	C401.892090,317.188049 400.031555,314.138367 396.083832,311.413574 
	C383.165436,302.497009 369.189728,299.579010 353.452301,302.629944 
	C353.686920,298.141357 353.617310,293.780304 355.178070,290.113159 
	C357.897186,283.724396 361.365845,277.608032 364.982391,271.658386 
	C370.822266,262.051208 375.788422,260.864746 385.634705,266.287781 
	C400.063599,274.234802 415.361206,276.178436 430.117432,268.978882 
	C440.239044,264.040558 449.642151,260.314484 460.744263,264.033142 
	C466.869080,274.488068 473.149872,284.857727 478.960754,295.484283 
	C479.897003,297.196472 479.584686,300.873840 478.329315,302.167389 
	C476.862122,303.679169 473.418854,304.614136 471.365967,304.004425 
	C454.869537,299.104919 439.847870,301.835449 425.796570,311.522552 
	C422.255920,313.963470 420.254822,316.698456 421.033936,321.512543 
	C413.918610,321.919617 407.169525,321.906403 400.420441,321.893188 
z"/>
<path fill="#00B57A" opacity="1.000000" stroke="none" 
	d="
M152.718033,264.034729 
	C156.907410,270.614655 161.144806,277.165039 165.236313,283.805237 
	C165.877182,284.845337 166.038345,286.283844 166.107971,287.555237 
	C166.401520,292.916565 166.576401,298.284393 166.824112,304.373016 
	C165.882812,304.277924 163.996262,304.389191 162.303299,303.869659 
	C145.549286,298.727905 130.487976,302.494629 116.550377,312.368042 
	C113.500969,314.528259 112.419395,317.450989 113.034424,321.512787 
	C105.915031,321.919220 99.161835,321.905273 92.408630,321.891327 
	C93.905037,317.181396 92.027756,314.138092 88.083649,311.414825 
	C75.166618,302.496124 61.189884,299.579498 45.452446,302.629425 
	C45.687069,298.141327 45.617702,293.781372 47.178051,290.114990 
	C49.896416,283.727570 53.363636,277.612213 56.979553,271.664032 
	C62.821552,262.053925 67.789299,260.864380 77.625443,266.283783 
	C92.049690,274.231110 107.341957,276.176361 122.100182,268.988434 
	C132.217087,264.061005 141.613205,260.295593 152.718033,264.034729 
z"/>
<path fill="#00B57A" opacity="1.000000" stroke="none" 
	d="
M476.718170,331.030518 
	C481.021606,338.895386 485.342834,346.750580 489.620178,354.629608 
	C491.444061,357.989349 491.595673,361.330841 488.967590,364.378479 
	C486.351135,367.412628 483.030273,367.537140 479.377289,366.666046 
	C475.029572,365.629242 470.660614,364.445831 466.234100,364.019989 
	C454.063904,362.849091 442.778259,365.645660 432.616028,372.575775 
	C425.353302,377.528595 417.345764,380.281372 408.601685,379.047791 
	C403.285614,378.297760 397.638245,377.103119 393.058960,374.494507 
	C382.973053,368.749054 372.998260,363.325653 360.097595,363.924103 
	C361.714752,354.164978 356.961151,346.581116 353.400574,338.125244 
	C362.034363,327.422638 369.060699,326.263428 380.098145,332.690338 
	C400.722839,344.699768 421.532593,344.837524 442.031555,332.537018 
	C449.546112,328.027863 457.095428,326.930603 465.435760,329.041626 
	C469.127808,329.976135 472.953278,330.383759 476.718170,331.030518 
z"/>
<path fill="#00B57A" opacity="1.000000" stroke="none" 
	d="
M165.120468,330.036652 
	C162.777023,334.795654 160.091705,339.421844 158.178192,344.347870 
	C155.877777,350.269867 154.234131,356.447021 152.306137,362.513702 
	C152.733398,362.739075 153.160660,362.964447 153.587921,363.189819 
	C152.673889,363.425690 151.763443,363.850708 150.845276,363.868134 
	C141.772675,364.040436 133.516525,366.828400 126.010658,371.782990 
	C110.793755,381.827606 95.664841,382.021790 80.337311,371.973358 
	C66.148903,362.671753 50.835228,361.793610 34.411545,366.114929 
	C34.324333,361.398743 34.040394,356.827515 35.308472,352.737518 
	C36.765495,348.038086 39.489082,343.706757 41.851929,339.317535 
	C47.993786,327.908447 59.561642,324.931519 70.642433,331.767670 
	C91.723000,344.773102 113.047661,345.050964 134.278824,332.389893 
	C141.650360,327.993958 149.074982,326.961914 157.233246,328.994690 
	C159.790115,329.631775 162.487442,329.705200 165.120468,330.036652 
z"/>
<path fill="#00B57A" opacity="1.000000" stroke="none" 
	d="
M246.333603,244.872055 
	C248.030869,239.934845 245.943970,236.802170 241.836258,234.065460 
	C232.374710,227.761810 222.033249,225.969238 210.490601,226.731079 
	C211.404404,215.897827 216.523468,207.266434 223.168411,199.538605 
	C226.187622,196.027390 229.778854,196.903412 233.280502,199.738876 
	C247.310104,211.099304 266.616821,211.014252 280.632904,200.076508 
	C282.700104,198.463348 285.940674,198.072830 288.715607,197.713943 
	C292.784332,197.187698 296.922729,197.200455 301.031433,196.983551 
	C305.680847,204.814346 310.511902,212.546860 314.842743,220.550079 
	C315.835846,222.385300 316.026642,225.895798 314.908630,227.276932 
	C313.829834,228.609589 310.395691,228.935181 308.319580,228.414368 
	C295.155884,225.112305 282.977600,226.848587 271.636993,234.434006 
	C268.075714,236.816055 266.171143,239.695358 267.115967,244.563812 
	C259.952484,244.994415 253.143036,244.933228 246.333603,244.872055 
z"/>
<path fill="#009A5C" opacity="1.000000" stroke="none" 
	d="
M364.186798,135.923569 
	C366.446716,140.905289 368.919464,145.807037 370.839844,150.916367 
	C371.433594,152.496216 370.877808,154.771210 370.240601,156.504486 
	C367.658081,163.529037 364.758881,170.436600 362.133301,177.446075 
	C360.177094,182.668442 360.416382,187.767685 362.878448,192.943542 
	C363.556549,194.369049 362.906891,196.969284 361.995453,198.517838 
	C356.852112,207.256821 351.014587,215.609802 346.232605,224.533203 
	C340.099060,235.978546 341.481171,242.777359 350.800903,252.226822 
	C347.217834,257.612244 343.576416,263.085327 339.659821,268.972046 
	C333.759094,259.814911 328.059875,250.970474 321.537689,240.848877 
	C322.070099,240.637604 323.226532,240.491547 323.933502,239.850113 
	C331.593079,232.900345 333.749329,224.274750 328.839478,215.052261 
	C323.067078,204.209534 316.447357,193.804886 309.892944,183.400589 
	C308.243896,180.782959 307.834656,179.149170 309.012787,175.972137 
	C310.546387,171.836563 312.026154,166.118027 310.328766,162.644623 
	C305.513947,152.791824 308.792175,144.710342 313.769653,136.425735 
	C316.297028,141.564331 318.463989,146.608704 320.374542,151.748383 
	C323.186523,159.313141 324.898193,166.964386 323.308990,175.211548 
	C322.836792,177.662094 323.953888,180.795883 325.230286,183.131607 
	C328.337341,188.817398 331.972504,194.214035 335.379608,199.736618 
	C337.613647,203.357681 339.472595,203.540604 342.180939,200.063934 
	C345.897644,195.292953 349.369843,190.470627 347.244293,183.709412 
	C346.580414,181.597687 346.689514,178.955826 347.279785,176.783493 
	C351.172485,162.456879 356.108765,148.531479 364.186798,135.923569 
z"/>
<path fill="#009A5C" opacity="1.000000" stroke="none" 
	d="
M200.173279,135.946777 
	C202.254990,140.460632 204.666733,144.862366 206.257034,149.543182 
	C206.898956,151.432587 206.125687,154.078659 205.339767,156.128616 
	C202.273987,164.125275 200.944809,171.927643 206.106277,178.505905 
	C198.887970,190.985855 191.856461,202.849792 185.137390,214.888138 
	C181.963989,220.573807 181.627945,226.819168 184.584137,232.676208 
	C186.266159,236.008774 189.033051,238.793762 191.575928,242.177277 
	C186.164429,250.595474 180.438507,259.502777 174.391403,268.909729 
	C170.643021,263.363068 166.991531,257.959839 163.529755,252.837311 
	C165.817307,249.419083 168.362808,246.476456 169.923676,243.081177 
	C172.263931,237.990570 172.015427,232.508728 169.254333,227.643936 
	C163.758087,217.960052 158.006805,208.413940 152.094009,198.978149 
	C150.543396,196.503632 150.277283,194.841187 151.216675,191.861298 
	C152.496384,187.801834 153.054916,182.935257 152.062408,178.868805 
	C150.377991,171.967545 147.638626,165.231262 144.571671,158.792908 
	C142.573669,154.598572 142.397964,151.043915 144.460739,147.049881 
	C145.909409,144.244888 147.059372,141.285629 148.887848,138.382080 
	C151.335648,142.571747 153.413345,146.705643 155.102966,150.992477 
	C158.186691,158.816498 160.181458,166.783859 158.231339,175.351852 
	C157.795105,177.268478 158.267303,179.822479 159.251129,181.555008 
	C162.942780,188.055923 166.949387,194.383087 170.983902,200.681885 
	C172.764038,203.461121 175.100082,203.535873 176.949493,200.770935 
	C180.428894,195.569153 184.592117,190.627502 182.242676,183.434738 
	C181.522552,181.230103 181.770279,178.286575 182.603165,176.067383 
	C187.321716,163.495010 192.312790,151.023758 197.347183,138.573105 
	C197.783798,137.493301 199.207886,136.812775 200.173279,135.946777 
z"/>
<path fill="#00B57A" opacity="1.000000" stroke="none" 
	d="
M262.848541,104.011642 
	C277.653320,122.106018 288.226471,142.493347 295.570312,164.609039 
	C297.163452,169.406799 295.760986,171.003784 290.896210,169.829971 
	C281.379272,167.533615 273.277374,169.877472 266.007416,176.335083 
	C258.729187,182.799988 255.291321,182.737869 247.879288,176.252670 
	C242.669144,171.694061 236.897385,168.847183 229.483871,168.497772 
	C234.890549,145.636841 245.424240,125.516045 258.924255,106.862007 
	C259.825134,105.617188 261.521912,104.948364 262.848541,104.011642 
z"/>
<path fill="#00A968" opacity="1.000000" stroke="none" 
	d="
M200.101746,135.591003 
	C199.207886,136.812775 197.783798,137.493301 197.347183,138.573105 
	C192.312790,151.023758 187.321716,163.495010 182.603165,176.067383 
	C181.770279,178.286575 181.522552,181.230103 182.242676,183.434738 
	C184.592117,190.627502 180.428894,195.569153 176.949493,200.770935 
	C175.100082,203.535873 172.764038,203.461121 170.983902,200.681885 
	C166.949387,194.383087 162.942780,188.055923 159.251129,181.555008 
	C158.267303,179.822479 157.795105,177.268478 158.231339,175.351852 
	C160.181458,166.783859 158.186691,158.816498 155.102966,150.992477 
	C153.413345,146.705643 151.335648,142.571747 149.149963,138.155762 
	C156.226410,125.964676 163.407013,113.870750 171.054398,102.079559 
	C173.343384,98.550255 177.031464,98.897659 179.638687,102.858528 
	C186.649841,113.509903 193.260513,124.424889 200.101746,135.591003 
z"/>
<path fill="#00A968" opacity="1.000000" stroke="none" 
	d="
M364.124512,135.566925 
	C356.108765,148.531479 351.172485,162.456879 347.279785,176.783493 
	C346.689514,178.955826 346.580414,181.597687 347.244293,183.709412 
	C349.369843,190.470627 345.897644,195.292953 342.180939,200.063934 
	C339.472595,203.540604 337.613647,203.357681 335.379608,199.736618 
	C331.972504,194.214035 328.337341,188.817398 325.230286,183.131607 
	C323.953888,180.795883 322.836792,177.662094 323.308990,175.211548 
	C324.898193,166.964386 323.186523,159.313141 320.374542,151.748383 
	C318.463989,146.608704 316.297028,141.564331 314.020630,136.191956 
	C320.816162,124.642769 327.658661,113.262245 334.957458,102.182312 
	C337.317810,98.599174 340.986786,98.857246 343.570496,102.770836 
	C350.615662,113.442299 357.259430,124.378784 364.124512,135.566925 
z"/>
<path fill="#00B57A" opacity="1.000000" stroke="none" 
	d="
M140.821655,209.020386 
	C145.696320,217.110748 150.693542,225.132111 155.324783,233.359497 
	C156.095306,234.728378 155.875565,237.417191 154.977417,238.701797 
	C154.351364,239.597229 151.675125,239.589310 150.102753,239.208466 
	C138.409225,236.376343 127.362854,237.363617 117.093788,244.080933 
	C107.787788,250.168274 98.358574,250.318085 89.070694,244.136917 
	C80.446533,238.397446 70.975410,237.007050 60.324326,237.664642 
	C59.713669,235.002487 58.985062,232.399734 59.840443,230.516388 
	C62.640213,224.351974 65.645653,218.212311 69.285667,212.519440 
	C72.320297,207.773346 75.997803,207.605240 80.730042,210.828339 
	C97.081779,221.965393 110.815254,221.690659 126.493240,210.125839 
	C127.920837,209.072769 130.064224,208.651291 131.902817,208.571426 
	C134.863678,208.442810 137.847519,208.843369 140.821655,209.020386 
z"/>
<path fill="#00B57A" opacity="1.000000" stroke="none" 
	d="
M448.821716,209.020401 
	C453.696381,217.110794 458.693604,225.132202 463.324860,233.359634 
	C464.095337,234.728470 463.875580,237.417374 462.977356,238.701874 
	C462.351227,239.597321 459.675018,239.589249 458.102631,239.208420 
	C446.409027,236.376328 435.362762,237.363876 425.093536,244.081009 
	C415.787842,250.167923 406.357300,250.320206 397.070129,244.138214 
	C388.445770,238.397400 378.975494,237.007126 368.324097,237.666275 
	C367.713104,235.004929 366.984467,232.402023 367.839844,230.518509 
	C370.639435,224.353790 373.644623,218.213760 377.284576,212.520645 
	C380.319672,207.773590 383.997955,207.604874 388.729034,210.827667 
	C405.078979,221.965195 418.810303,221.690704 434.492706,210.125748 
	C435.920563,209.072769 438.063934,208.651276 439.902618,208.571426 
	C442.863556,208.442825 445.847504,208.843384 448.821716,209.020401 
z"/>
<path fill="#00A867" opacity="1.000000" stroke="none" 
	d="
M329.580475,327.726562 
	C324.455292,327.272675 319.195435,326.582947 313.960602,325.738007 
	C306.094086,324.468323 298.782349,324.501770 291.450378,329.067810 
	C268.877838,343.125183 245.897049,342.848083 222.984070,329.489868 
	C211.336044,322.699036 201.921997,325.123688 195.216599,336.844788 
	C192.491089,341.609039 189.540695,346.438202 187.997681,351.625977 
	C186.686996,356.032684 187.252121,360.997314 187.033539,366.166718 
	C185.499954,367.135468 183.900284,367.599487 182.343964,368.179749 
	C177.984146,369.805389 174.103867,369.127167 170.964584,365.635864 
	C167.903992,362.232056 167.835251,358.271973 169.949829,354.484741 
	C176.839539,342.145203 183.822754,329.855225 191.003494,317.683929 
	C191.975266,316.036804 194.109650,314.668152 195.995911,314.034698 
	C207.412109,310.200897 218.297821,311.368500 228.425797,318.138672 
	C241.700928,327.012665 256.153168,329.315094 271.357147,324.819641 
	C276.846497,323.196564 282.029236,320.185242 286.987610,317.201874 
	C294.005371,312.979401 301.435547,311.846741 309.468597,311.966797 
	C320.239716,312.127838 325.118286,319.276550 329.580475,327.726562 
z"/>
<path fill="#00B57A" opacity="1.000000" stroke="none" 
	d="
M412.006409,123.991913 
	C413.208527,124.766121 414.718933,125.293335 415.566681,126.351471 
	C429.023376,143.147293 438.997406,161.839661 445.679871,182.288361 
	C445.975159,183.191940 445.907745,184.214035 446.065063,185.711960 
	C444.420868,185.711960 442.978607,185.972122 441.665924,185.669678 
	C433.247986,183.729980 425.935089,185.682724 419.396149,191.312653 
	C412.134460,197.564926 409.882751,197.574936 402.704803,191.385468 
	C397.534088,186.926804 391.725403,184.604523 384.471741,184.499603 
	C388.153381,172.875916 391.595093,161.393387 396.546356,150.603577 
	C400.805206,141.322571 406.786652,132.832001 412.006409,123.991913 
z"/>
<path fill="#00B57A" opacity="1.000000" stroke="none" 
	d="
M104.005424,123.998749 
	C105.208878,124.769142 106.724007,125.290291 107.569191,126.347183 
	C121.009781,143.154449 131.012421,161.834106 137.683746,182.291245 
	C137.978455,183.194992 137.911133,184.216797 138.067993,185.713577 
	C136.425766,185.713577 134.983292,185.974106 133.670837,185.671219 
	C125.251877,183.728317 117.937920,185.681076 111.398605,191.311951 
	C104.134415,197.567001 101.893959,197.577820 94.705536,191.384674 
	C89.532806,186.928146 83.723183,184.605698 76.470306,184.497498 
	C80.153816,172.874802 83.597084,161.394501 88.548355,150.606308 
	C92.807114,141.327011 98.786720,132.837479 104.005424,123.998749 
z"/>
<path fill="#00A967" opacity="1.000000" stroke="none" 
	d="
M246.127991,245.116302 
	C253.143036,244.933228 259.952484,244.994415 267.215515,244.964035 
	C272.096588,249.749435 274.447845,250.108475 280.175568,246.857315 
	C282.190735,245.713501 284.141022,244.264679 286.317719,243.629471 
	C295.375305,240.986221 302.781281,239.395859 308.726837,249.513016 
	C310.148010,251.931320 311.995605,254.098999 313.749573,256.698822 
	C309.428223,256.347351 304.930634,255.982819 300.599854,254.931381 
	C295.537659,253.702393 291.184631,254.597672 286.852844,257.361023 
	C272.729889,266.370270 257.438354,268.472839 241.410202,263.967316 
	C236.671082,262.635162 232.285507,260.006989 227.784653,257.874115 
	C220.076874,254.221588 214.107971,255.247467 209.580490,262.428070 
	C204.629700,270.280090 200.340805,278.597046 196.388245,287.005127 
	C194.990738,289.977966 195.434250,293.816223 195.042557,297.717590 
	C193.182541,298.822205 191.362335,299.778961 189.443604,300.057861 
	C183.253632,300.957489 178.771042,295.771820 181.243927,290.059418 
	C188.491302,273.317902 197.737854,257.614868 210.137527,244.268097 
	C212.666107,241.546371 219.766327,242.311234 224.632355,242.781281 
	C228.045105,243.110962 231.358002,245.468628 234.508484,247.280579 
	C238.968643,249.845840 242.703979,249.494308 246.127991,245.116302 
z"/>
<path fill="#00A867" opacity="1.000000" stroke="none" 
	d="
M165.389801,329.835876 
	C162.487442,329.705200 159.790115,329.631775 157.233246,328.994690 
	C149.074982,326.961914 141.650360,327.993958 134.278824,332.389893 
	C113.047661,345.050964 91.723000,344.773102 70.642433,331.767670 
	C59.561642,324.931519 47.993786,327.908447 41.851929,339.317535 
	C39.489082,343.706757 36.765495,348.038086 35.308472,352.737518 
	C34.040394,356.827515 34.324333,361.398743 34.002937,366.193848 
	C30.363462,367.871216 27.173243,367.077118 24.720661,363.987885 
	C22.350908,361.002960 22.617739,357.768951 24.376808,354.646484 
	C30.484110,343.805756 36.559177,332.943512 42.919411,322.251831 
	C43.977493,320.473175 46.209366,318.866943 48.221424,318.271942 
	C57.320545,315.581238 66.260132,315.828888 74.631889,320.974457 
	C76.471024,322.104828 78.340187,323.189270 80.225838,324.240448 
	C85.476509,327.167572 87.763145,326.797302 92.202843,322.142059 
	C99.161835,321.905273 105.915031,321.919220 113.138611,321.910583 
	C117.946121,326.842834 120.671524,327.680969 126.026405,323.998077 
	C136.965012,316.474915 148.396698,314.760834 160.999542,318.949524 
	C164.000031,319.946747 167.499786,319.441742 171.409500,319.664093 
	C169.491394,322.990051 167.575272,326.312592 165.389801,329.835876 
z"/>
<path fill="#00A867" opacity="1.000000" stroke="none" 
	d="
M476.603760,330.720947 
	C472.953278,330.383759 469.127808,329.976135 465.435760,329.041626 
	C457.095428,326.930603 449.546112,328.027863 442.031555,332.537018 
	C421.532593,344.837524 400.722839,344.699768 380.098145,332.690338 
	C369.060699,326.263428 362.034363,327.422638 353.351227,337.771637 
	C349.624725,331.971283 346.151733,325.963013 342.894775,320.328491 
	C348.880035,319.223236 354.700256,317.952576 360.581818,317.109924 
	C368.672729,315.950836 376.486450,316.724762 383.514526,321.484314 
	C385.297241,322.691589 387.196106,323.738037 389.092133,324.765137 
	C393.386780,327.091492 397.061707,326.376251 400.212891,322.142944 
	C407.169525,321.906403 413.918610,321.919617 421.138000,321.910370 
	C425.943115,326.839844 428.553497,327.510529 434.055420,324.025879 
	C441.822510,319.106506 449.789337,316.162720 459.325439,316.676300 
	C468.841431,317.188721 472.548615,323.634308 476.603760,330.720947 
z"/>
<path fill="#00A867" opacity="1.000000" stroke="none" 
	d="
M300.927795,196.658676 
	C296.922729,197.200455 292.784332,197.187698 288.715607,197.713943 
	C285.940674,198.072830 282.700104,198.463348 280.632904,200.076508 
	C266.616821,211.014252 247.310104,211.099304 233.280502,199.738876 
	C229.778854,196.903412 226.187622,196.027390 223.168411,199.538605 
	C216.523468,207.266434 211.404404,215.897827 210.025452,226.709335 
	C206.341995,227.987808 202.348877,231.367752 198.993256,227.463837 
	C195.627945,223.548660 199.142914,219.765915 201.038452,216.573364 
	C206.459457,207.443146 212.090530,198.409134 218.165100,189.704407 
	C223.084076,182.655594 231.565872,181.866455 237.969284,187.623245 
	C245.396027,194.299973 253.682480,197.959900 263.510406,194.862350 
	C267.791443,193.513046 271.813385,190.755112 275.410004,187.942566 
	C282.988068,182.016617 290.484711,182.648758 296.397827,190.303360 
	C297.921722,192.276077 299.351257,194.321686 300.927795,196.658676 
z"/>
<path fill="#00A767" opacity="1.000000" stroke="none" 
	d="
M152.588257,263.735687 
	C141.613205,260.295593 132.217087,264.061005 122.100182,268.988434 
	C107.341957,276.176361 92.049690,274.231110 77.625443,266.283783 
	C67.789299,260.864380 62.821552,262.053925 56.979553,271.664032 
	C53.363636,277.612213 49.896416,283.727570 47.178051,290.114990 
	C45.617702,293.781372 45.687069,298.141327 45.027115,302.641846 
	C41.932987,304.969391 38.810757,305.605255 35.904194,302.840454 
	C32.860897,299.945618 33.859371,296.712982 35.655388,293.719788 
	C42.581371,282.177094 49.345142,270.522949 56.701775,259.257996 
	C61.261005,252.276611 66.742531,250.961166 74.731644,253.778412 
	C77.216919,254.654831 79.576431,255.984299 81.851997,257.343323 
	C96.059181,265.828217 110.113853,265.606873 124.407448,257.326599 
	C128.173645,255.144821 132.606232,253.844070 136.900726,252.914688 
	C141.799835,251.854477 146.026215,253.382843 148.640610,258.195587 
	C149.663376,260.078339 151.171448,261.697449 152.588257,263.735687 
z"/>
<path fill="#00A766" opacity="1.000000" stroke="none" 
	d="
M460.621277,263.729980 
	C449.642151,260.314484 440.239044,264.040558 430.117432,268.978882 
	C415.361206,276.178436 400.063599,274.234802 385.634705,266.287781 
	C375.788422,260.864746 370.822266,262.051208 364.982391,271.658386 
	C361.365845,277.608032 357.897186,283.724396 355.178070,290.113159 
	C353.617310,293.780304 353.686920,298.141357 353.027008,302.642883 
	C350.954163,303.729095 348.876892,304.362518 347.159821,304.886078 
	C347.383636,298.262512 347.528076,292.429901 347.824097,286.604980 
	C347.879944,285.506531 348.337433,284.305450 348.951019,283.377441 
	C355.089966,274.092957 361.065155,264.685669 367.582214,255.671326 
	C371.274048,250.564774 376.974670,252.838272 381.890686,253.537872 
	C384.093781,253.851425 386.270081,255.144562 388.211273,256.381317 
	C403.382172,266.046814 418.419647,265.974640 433.742065,256.536621 
	C436.998077,254.531021 441.094574,253.638062 444.932068,252.891220 
	C449.868958,251.930435 454.044403,253.435043 456.683289,258.187805 
	C457.724091,260.062317 459.213287,261.687897 460.621277,263.729980 
z"/>
<path fill="#00A766" opacity="1.000000" stroke="none" 
	d="
M448.706848,208.709595 
	C445.847504,208.843384 442.863556,208.442825 439.902618,208.571426 
	C438.063934,208.651276 435.920563,209.072769 434.492706,210.125748 
	C418.810303,221.690704 405.078979,221.965195 388.729034,210.827667 
	C383.997955,207.604874 380.319672,207.773590 377.284576,212.520645 
	C373.644623,218.213760 370.639435,224.353790 367.839844,230.518509 
	C366.984467,232.402023 367.713104,235.004929 367.857422,237.638580 
	C364.895416,238.242035 361.792389,238.485275 358.689331,238.728516 
	C359.239410,235.663559 359.020721,232.157150 360.480682,229.614670 
	C365.261810,221.288376 370.401855,213.137497 375.888947,205.256882 
	C380.400818,198.776855 387.373871,198.237640 393.433258,203.213654 
	C405.926300,213.473022 416.030029,213.473969 428.590973,203.216934 
	C435.597015,197.495941 441.628296,199.058502 448.706848,208.709595 
z"/>
<path fill="#00A766" opacity="1.000000" stroke="none" 
	d="
M140.706787,208.709564 
	C137.847519,208.843369 134.863678,208.442810 131.902817,208.571426 
	C130.064224,208.651291 127.920837,209.072769 126.493240,210.125839 
	C110.815254,221.690659 97.081779,221.965393 80.730042,210.828339 
	C75.997803,207.605240 72.320297,207.773346 69.285667,212.519440 
	C65.645653,218.212311 62.640213,224.351974 59.840443,230.516388 
	C58.985062,232.399734 59.713669,235.002487 59.857712,237.635910 
	C56.895752,238.240433 53.792950,238.484833 50.690147,238.729248 
	C51.239788,235.664337 51.020428,232.157867 52.480240,229.615585 
	C57.261341,221.289200 62.402489,213.139023 67.888397,205.257401 
	C72.398422,198.777832 79.373184,198.237045 85.432930,203.213333 
	C97.926453,213.473083 108.029984,213.474167 120.590813,203.217072 
	C127.597023,197.495850 133.628265,199.058365 140.706787,208.709564 
z"/>
<path fill="#00A867" opacity="1.000000" stroke="none" 
	d="
M262.731232,103.689636 
	C261.521912,104.948364 259.825134,105.617188 258.924255,106.862007 
	C245.424240,125.516045 234.890549,145.636841 229.063507,168.438034 
	C227.223465,169.128143 225.413635,169.393265 223.624237,169.758423 
	C218.065536,170.892746 216.818237,169.555008 218.596344,164.118103 
	C225.330948,143.525665 235.301392,124.621346 248.354980,107.337181 
	C249.258133,106.141342 250.158371,104.941887 251.102478,103.778610 
	C255.034409,98.933899 257.932892,98.836403 262.731232,103.689636 
z"/>
<path fill="#00A867" opacity="1.000000" stroke="none" 
	d="
M103.736664,123.862404 
	C98.786720,132.837479 92.807114,141.327011 88.548355,150.606308 
	C83.597084,161.394501 80.153816,172.874802 76.039886,184.442978 
	C73.628563,185.299805 71.233421,185.768372 67.844398,186.431381 
	C68.343468,183.799332 68.500793,181.927002 69.070251,180.189758 
	C70.156631,176.875580 71.437256,173.622498 72.709908,170.372498 
	C75.821350,162.426743 74.962196,160.051056 66.982521,155.831589 
	C70.105209,149.923965 73.229393,144.013519 76.345001,138.119293 
	C86.077301,142.519562 86.470123,142.183990 93.108376,133.528030 
	C95.971199,129.795044 97.355263,124.144470 103.736664,123.862404 
z"/>
<path fill="#00A666" opacity="1.000000" stroke="none" 
	d="
M411.738708,123.852249 
	C406.786652,132.832001 400.805206,141.322571 396.546356,150.603577 
	C391.595093,161.393387 388.153381,172.875916 384.041321,184.446320 
	C381.483490,185.026855 378.940887,185.218842 376.398285,185.410828 
	C376.875397,182.890091 377.047699,180.263779 377.878052,177.865326 
	C384.290955,159.342361 393.641541,142.397934 405.897583,127.109962 
	C407.177094,125.513901 409.586029,124.823288 411.738708,123.852249 
z"/>
<path fill="#B87556" opacity="1.000000" stroke="none" 
	d="
M100.987946,413.947723 
	C97.704742,413.947723 94.421539,413.947723 90.789268,413.947723 
	C90.789268,407.069550 90.789268,400.377777 90.789268,393.733032 
	C98.919838,393.733032 106.941940,393.733032 115.473518,393.733032 
	C115.473518,396.096863 115.473518,398.708588 114.898041,401.667786 
	C113.339203,402.033600 112.348785,401.982147 111.373596,402.080994 
	C100.820358,403.150818 100.821014,403.157257 100.987946,413.947723 
z"/>
<path fill="#B87556" opacity="1.000000" stroke="none" 
	d="
M408.988312,413.947754 
	C405.705078,413.947754 402.421814,413.947754 398.789398,413.947754 
	C398.789398,407.069733 398.789398,400.377960 398.789398,393.733032 
	C406.919800,393.733032 414.942139,393.733032 423.473480,393.733032 
	C423.473480,396.096832 423.473480,398.708588 422.898010,401.667786 
	C421.339172,402.033600 420.348724,401.982147 419.373566,402.080994 
	C408.819672,403.150940 408.820312,403.157410 408.988312,413.947754 
z"/>
<path fill="#C27B5B" opacity="1.000000" stroke="none" 
	d="
M255.007111,413.936035 
	C250.882645,413.936035 246.758179,413.936035 242.316589,413.936035 
	C242.316589,407.885895 242.316589,401.999146 242.316589,396.535614 
	C252.053741,396.535614 261.615479,396.535614 271.991180,396.535614 
	C271.991180,398.339233 271.991180,400.728180 271.481384,403.557190 
	C268.348816,404.155212 265.696564,404.117462 263.108734,404.507263 
	C254.948746,405.736328 254.958084,405.798370 255.007111,413.936035 
z"/>
<path fill="#A6644A" opacity="1.000000" stroke="none" 
	d="
M337.991028,413.951569 
	C336.026428,413.951569 334.061798,413.951569 331.754028,413.951569 
	C331.754028,404.036835 331.754028,394.304596 331.754028,384.516449 
	C336.534088,383.812195 341.203339,383.124268 346.515686,382.341583 
	C346.515686,386.637115 346.515686,390.889832 345.972473,395.519409 
	C339.427155,396.630798 338.056580,398.087280 337.954926,404.052216 
	C337.898712,407.350861 337.974640,410.651703 337.991028,413.951569 
z"/>
<path fill="#A56449" opacity="1.000000" stroke="none" 
	d="
M172.991089,413.953644 
	C171.358826,413.953644 169.726547,413.953644 167.754608,413.953644 
	C167.754608,403.352600 167.754608,392.889069 167.754608,382.422455 
	C172.618271,383.100159 177.140564,383.730316 182.487289,384.475372 
	C182.487289,387.525787 182.487289,390.908783 181.972153,394.717529 
	C173.624939,396.972626 172.951385,397.818695 172.933838,405.970764 
	C172.928101,408.631653 172.970642,411.292694 172.991089,413.953644 
z"/>
<path fill="#D48C64" opacity="1.000000" stroke="none" 
	d="
M255.469452,414.011841 
	C254.958084,405.798370 254.948746,405.736328 263.108734,404.507263 
	C265.696564,404.117462 268.348816,404.155212 271.413940,404.005920 
	C271.856323,407.114471 271.856323,410.214355 271.856323,414.087646 
	C266.562347,414.087646 261.247070,414.087646 255.469452,414.011841 
z"/>
<path fill="#D48C64" opacity="1.000000" stroke="none" 
	d="
M101.451195,414.018646 
	C100.821014,403.157257 100.820358,403.150818 111.373596,402.080994 
	C112.348785,401.982147 113.339203,402.033600 114.769440,402.035889 
	C115.216331,405.852142 115.216331,409.647858 115.216331,414.089569 
	C110.764679,414.089569 106.339561,414.089569 101.451195,414.018646 
z"/>
<path fill="#D48C64" opacity="1.000000" stroke="none" 
	d="
M409.451538,414.018677 
	C408.820312,403.157410 408.819672,403.150940 419.373566,402.080994 
	C420.348724,401.982147 421.339172,402.033600 422.769409,402.035889 
	C423.216309,405.852142 423.216309,409.647797 423.216309,414.089600 
	C418.764862,414.089600 414.339783,414.089600 409.451538,414.018677 
z"/>
<path fill="#C47C5C" opacity="1.000000" stroke="none" 
	d="
M173.450989,414.020264 
	C172.970642,411.292694 172.928101,408.631653 172.933838,405.970764 
	C172.951385,397.818695 173.624939,396.972626 181.845245,395.099426 
	C182.233459,401.159729 182.233459,407.263885 182.233459,414.086914 
	C179.401199,414.086914 176.656036,414.086914 173.450989,414.020264 
z"/>
<path fill="#C47C5C" opacity="1.000000" stroke="none" 
	d="
M338.448029,414.018890 
	C337.974640,410.651703 337.898712,407.350861 337.954926,404.052216 
	C338.056580,398.087280 339.427155,396.630798 345.849304,395.901733 
	C346.269348,401.717773 346.269348,407.528351 346.269348,414.086212 
	C343.749359,414.086212 341.327209,414.086212 338.448029,414.018890 
z"/>
</svg>